<svg xmlns="http://www.w3.org/2000/svg" viewBox="0 0 969 247" role="img" aria-labelledby="t" shape-rendering="geometricPrecision">
  <title id="t">AGY</title>
  <path fill="#024BB4" fill-rule="evenodd" d="M491.4 2.4C496.7 1.7 502.1 2.0 507.5 2.0C515.5 2.0 523.5 2.0 531.5 2.0C556.0 2.0 580.5 2.0 605.0 2.0C618.0 2.0 631.0 2.0 644.0 2.0C648.5 2.0 653.0 2.0 657.5 2.0C659.2 2.0 661.2 1.9 662.8 2.7C663.6 3.1 664.4 4.0 664.4 5.0C664.4 6.3 663.2 7.3 662.3 8.2C660.8 9.7 659.0 11.1 658.1 13.0C657.2 14.9 659.5 17.1 660.3 19.1C660.6 20.0 660.5 21.2 660.1 22.1C658.8 25.0 655.9 26.9 653.8 29.3C650.4 33.3 646.8 37.2 643.3 41.2C642.4 42.3 641.7 43.6 640.8 44.7C637.9 47.9 635.0 50.9 632.4 54.3C630.0 57.4 627.8 61.2 624.1 62.5C620.0 64.0 615.4 63.0 611.1 63.0C603.6 63.0 596.1 63.0 588.6 63.0C566.6 63.0 544.6 63.0 522.6 63.0C516.1 63.0 509.6 63.0 503.1 63.0C499.2 63.0 495.2 62.7 491.2 63.1C484.7 63.9 478.2 65.6 472.0 67.9C468.2 69.3 464.8 71.6 461.3 73.7C454.9 77.6 449.2 82.6 444.3 88.2C438.8 94.6 435.0 102.6 432.3 110.7C430.7 115.4 429.3 120.4 429.0 125.4C428.5 136.3 430.3 148.1 435.8 157.6C439.4 163.7 444.7 168.8 450.7 172.7C458.2 177.5 467.1 180.8 476.0 181.8C481.4 182.5 486.9 182.0 492.3 182.0C502.8 182.0 513.3 182.0 523.8 182.0C533.3 182.0 542.8 182.0 552.3 182.0C555.3 182.0 558.3 182.0 561.3 182.0C563.9 182.0 567.0 182.3 568.8 180.5C570.5 178.7 570.1 175.7 570.6 173.3C571.5 169.1 572.6 165.0 573.0 160.7C573.3 158.0 573.8 155.4 574.1 152.8C574.2 151.1 575.0 148.5 573.5 147.6C572.0 146.7 570.0 147.0 568.2 147.0C565.7 147.0 563.2 147.0 560.7 147.0C552.2 147.0 543.7 147.0 535.2 147.0C532.8 147.0 530.3 146.9 527.9 147.2C526.3 147.3 524.7 147.8 523.2 147.4C520.5 146.7 519.3 143.4 517.6 141.1C513.5 135.6 510.5 129.3 506.6 123.6C503.2 118.5 499.9 113.3 496.5 108.2C495.1 106.1 493.8 103.9 492.6 101.7C491.7 100.1 490.2 98.5 490.3 96.7C490.3 96.0 490.5 95.2 491.0 94.8C492.4 93.6 494.5 94.0 496.3 94.0C499.3 94.0 502.3 94.0 505.3 94.0C514.3 94.0 523.3 94.0 532.3 94.0C558.7 94.0 585.2 94.0 611.7 94.0C620.7 94.0 629.7 94.0 638.7 94.0C641.2 94.0 643.7 94.0 646.2 94.0C648.3 94.0 651.1 93.7 652.3 95.4C653.6 97.5 652.3 100.3 652.0 102.7C651.4 107.4 650.3 112.0 649.4 116.6C646.6 129.6 644.1 142.7 642.1 155.8C641.4 161.1 640.6 166.3 639.8 171.5C639.6 173.1 638.9 174.6 638.5 176.2C637.4 180.3 636.8 184.6 636.1 188.8C634.6 199.5 632.8 210.1 630.4 220.6C629.2 225.7 628.6 230.9 628.0 236.2C627.6 239.1 627.8 242.4 626.1 244.8C625.1 246.4 622.7 246.9 620.8 247.0C617.8 247.1 614.8 247.0 611.8 247.0C604.1 247.0 596.3 247.3 588.6 246.2C584.1 245.6 579.4 247.0 574.8 247.0C562.9 247.0 550.9 247.1 539.0 246.5C532.6 246.3 526.2 247.0 519.9 247.0C506.9 247.0 493.9 247.7 480.9 246.9C478.7 246.8 476.5 246.1 474.3 246.0C470.4 245.9 466.4 246.3 462.6 245.8C459.1 245.4 455.7 244.6 452.2 244.2C448.7 243.7 445.2 243.5 441.8 242.6C437.4 241.6 433.0 240.5 428.8 239.1C426.6 238.3 424.7 237.1 422.5 236.4C417.1 234.6 411.9 232.3 407.0 229.4C404.5 227.9 402.3 226.0 399.9 224.5C398.3 223.6 396.6 222.9 395.2 221.7C393.6 220.3 392.3 218.6 390.7 217.2C389.6 216.3 388.3 215.6 387.2 214.7C383.3 211.1 380.2 206.6 377.2 202.2C373.8 197.0 370.6 191.6 368.0 185.9C363.8 176.7 361.2 166.7 359.8 156.6C359.2 152.2 358.3 147.8 358.0 143.4C357.7 137.2 358.1 131.0 358.9 124.8C359.4 120.3 359.5 115.7 360.3 111.2C360.6 109.2 361.5 107.4 361.9 105.4C363.0 101.0 363.9 96.6 365.4 92.3C370.0 79.6 377.0 67.6 385.5 56.9C386.8 55.3 387.7 53.2 389.1 51.5C399.4 39.8 411.8 29.7 425.3 21.8C434.2 16.6 443.8 12.5 453.6 9.6C457.1 8.6 460.4 7.2 463.9 6.4C469.7 5.0 475.6 3.6 481.6 3.1C484.9 2.8 488.2 3.0 491.4 2.4Z"/>
  <path fill="#FFFFFF" fill-rule="evenodd" d="M241.4 0.4C249.7 -0.6 258.5 1.3 266.0 5.0C269.9 6.9 273.8 9.1 276.7 12.3C282.3 18.2 285.7 26.0 288.4 33.6C290.2 38.7 292.6 43.6 294.4 48.6C295.8 52.6 297.8 56.2 299.4 60.1C300.9 63.6 302.2 67.2 303.7 70.8C312.5 92.1 320.8 113.6 329.6 134.9C339.5 159.2 348.7 183.7 358.6 207.9C361.8 215.8 364.5 223.9 367.8 231.7C369.0 234.5 370.3 237.2 371.4 240.1C372.1 241.7 373.3 244.0 372.1 245.2C370.5 246.8 367.7 246.0 365.5 246.0C361.5 246.0 357.5 246.0 353.5 246.0C342.0 246.0 330.5 246.0 319.0 246.0C284.0 246.0 249.0 246.0 214.0 246.0C193.5 246.0 173.0 246.0 152.5 246.0C145.5 246.0 138.5 246.0 131.5 246.0C129.5 246.0 127.5 246.0 125.5 246.0C124.3 246.0 122.9 246.2 122.0 245.3C121.7 245.0 121.8 244.3 122.0 243.8C123.7 239.6 127.9 236.8 130.9 233.4C132.1 232.1 133.0 230.5 134.2 229.2C135.7 227.7 137.3 226.3 138.7 224.7C139.7 223.7 140.3 222.3 141.3 221.3C143.8 218.3 147.1 216.1 149.4 212.9C151.3 210.3 153.6 208.1 155.8 205.8C157.0 204.5 157.9 202.9 159.1 201.6C161.2 199.2 163.6 197.1 165.8 194.8C168.0 192.4 169.7 189.7 172.0 187.5C173.6 186.0 175.4 184.3 177.6 184.1C184.5 183.4 191.5 184.0 198.5 184.0C211.5 184.0 224.5 184.0 237.5 184.0C243.5 184.0 249.5 184.0 255.5 184.0C257.5 184.0 259.5 184.0 261.5 184.0C263.1 184.0 265.3 184.3 266.2 182.9C266.8 182.1 266.4 180.9 266.1 179.9C265.6 178.4 264.9 177.1 264.4 175.6C262.7 170.9 260.6 166.4 258.7 161.8C253.2 148.8 247.7 135.8 242.2 122.8C239.2 115.4 235.9 108.1 232.8 100.7C231.6 97.9 230.6 94.9 229.4 92.1C228.8 90.5 228.5 88.1 226.8 87.8C225.7 87.5 224.6 88.9 223.8 89.8C222.5 91.0 221.3 92.3 220.0 93.5C215.9 97.4 212.4 101.9 208.5 106.0C200.2 114.7 192.1 123.6 183.9 132.4C180.8 135.8 177.5 139.0 174.6 142.6C171.3 146.8 166.7 149.8 163.6 154.1C160.9 157.8 157.4 160.9 154.2 164.2C153.0 165.5 152.1 167.1 150.9 168.4C148.1 171.6 144.9 174.4 142.1 177.6C140.2 179.7 138.5 182.0 136.5 184.0C134.8 185.8 132.9 187.4 131.3 189.3C130.3 190.3 129.7 191.7 128.7 192.7C126.4 195.4 123.6 197.6 121.3 200.3C120.3 201.3 119.7 202.7 118.7 203.7C116.2 206.7 113.2 209.2 110.5 212.0C108.8 213.8 107.5 216.0 105.8 217.8C102.6 221.1 99.1 224.1 96.1 227.6C91.6 232.6 87.3 237.8 82.7 242.7C81.8 243.8 80.8 244.9 79.5 245.5C77.3 246.4 74.8 246.0 72.5 246.0C69.5 246.0 66.5 246.0 63.5 246.0C53.5 246.0 43.5 246.0 33.5 246.0C26.5 246.0 19.5 246.0 12.5 246.0C10.0 246.0 7.5 246.0 5.0 246.0C4.1 246.0 3.2 246.0 2.3 245.8C1.8 245.7 1.1 245.5 1.0 245.1C0.9 243.9 2.3 243.0 3.0 242.0C4.9 239.0 8.0 237.0 10.1 234.1C12.4 231.0 15.3 228.3 17.9 225.4C22.9 219.9 27.5 214.0 32.8 208.8C34.5 207.0 36.0 205.0 37.5 203.0C39.1 201.1 41.1 199.6 42.6 197.6C45.7 193.7 48.8 189.8 52.2 186.2C56.9 181.4 61.5 176.5 65.9 171.4C67.1 170.1 68.0 168.5 69.2 167.2C73.9 162.4 78.5 157.5 82.9 152.4C84.1 151.1 85.0 149.5 86.2 148.2C87.7 146.7 89.3 145.3 90.7 143.7C91.7 142.7 92.3 141.3 93.3 140.3C98.0 135.0 103.0 130.0 107.7 124.7C108.7 123.7 109.3 122.3 110.3 121.3C112.4 118.9 114.8 116.8 116.9 114.4C118.1 113.1 119.0 111.5 120.2 110.2C121.0 109.5 121.8 108.8 122.5 108.0C124.2 106.2 126.1 104.6 127.7 102.7C128.7 101.7 129.3 100.3 130.3 99.3C135.7 93.2 141.5 87.5 146.9 81.4C148.1 80.1 149.0 78.5 150.2 77.2C151.7 75.7 153.3 74.3 154.7 72.7C155.7 71.7 156.3 70.3 157.3 69.3C161.7 64.2 166.5 59.5 170.9 54.4C177.1 47.6 182.9 40.4 189.1 33.6C191.2 31.2 193.6 29.1 195.7 26.7C196.7 25.7 197.3 24.3 198.3 23.3C201.8 19.3 205.7 15.6 210.1 12.6C216.3 8.4 223.0 4.9 230.1 2.6C233.7 1.4 237.6 1.1 241.4 0.4ZM664.1 5.7C667.6 5.5 671.0 6.0 674.5 6.0C685.0 6.0 695.5 6.0 706.0 6.0C711.0 6.0 716.0 6.0 721.0 6.0C724.4 6.0 729.0 5.3 731.0 8.0C740.8 21.6 750.8 35.2 760.6 48.9C764.7 54.7 769.3 60.2 773.4 66.1C777.9 72.5 782.8 78.6 787.4 85.1C789.0 87.4 790.8 89.6 792.5 92.0C793.5 93.4 795.2 95.8 796.9 95.2C798.1 94.7 799.0 93.5 800.0 92.5C801.5 91.1 803.0 89.6 804.5 88.0C808.6 83.7 812.8 79.4 817.2 75.3C819.3 73.4 821.7 71.8 823.7 69.8C832.3 61.5 840.6 52.7 849.2 44.3C850.9 42.6 853.0 41.1 854.9 39.5C858.4 36.6 861.5 33.1 864.7 29.8C867.2 27.3 869.6 24.7 872.2 22.3C874.5 20.1 877.2 18.3 879.4 16.1C881.2 14.3 882.9 12.6 884.7 10.8C886.2 9.3 887.5 7.5 889.4 6.6C891.5 5.7 894.0 6.0 896.3 6.0C899.8 6.0 903.3 6.0 906.8 6.0C917.3 6.0 927.8 6.0 938.3 6.0C944.8 6.0 951.3 6.0 957.8 6.0C959.8 6.0 961.8 6.0 963.8 6.0C965.3 6.0 967.6 5.6 968.1 7.0C968.2 7.5 967.7 7.9 967.4 8.3C966.7 9.1 965.9 9.7 965.1 10.4C962.8 12.6 960.6 14.9 958.3 17.1C951.9 23.7 944.8 29.6 938.3 36.1C936.1 38.4 933.9 40.7 931.6 42.9C930.2 44.0 928.6 44.9 927.4 46.1C920.0 53.3 913.2 61.0 905.6 67.8C904.2 69.0 902.6 69.9 901.4 71.1C894.0 78.3 887.4 86.4 879.1 92.4C873.3 98.1 867.8 104.0 861.9 109.6C860.1 111.3 857.9 112.7 856.1 114.4C851.8 118.5 847.9 123.2 843.3 127.0C837.8 131.5 833.0 136.7 827.9 141.6C824.9 144.6 820.5 147.0 819.3 151.1C817.6 157.3 816.8 163.7 815.9 170.1C815.0 175.9 813.5 181.7 812.4 187.6C810.3 197.6 809.1 207.9 806.7 217.9C805.3 224.2 804.6 230.7 803.3 237.0C803.0 238.6 802.7 240.3 802.3 242.0C802.1 243.1 801.9 244.5 801.0 245.2C800.1 246.0 798.6 246.0 797.3 246.0C795.3 246.0 793.3 246.0 791.3 246.0C785.8 246.0 780.3 246.0 774.8 246.0C766.3 246.0 757.9 246.0 749.4 246.0C744.9 246.0 740.4 246.9 736.1 245.8C735.0 245.4 734.5 243.7 734.7 242.5C735.0 240.4 735.5 238.3 735.9 236.3C736.9 230.8 738.0 225.3 738.9 219.8C741.5 203.3 745.6 187.0 748.1 170.5C748.7 166.2 749.5 162.0 750.4 157.8C751.2 153.9 752.5 149.3 750.5 145.9C747.6 140.9 743.9 136.5 740.6 131.9C734.1 122.8 727.9 113.6 721.3 104.6C712.7 92.7 704.0 80.9 695.6 68.9C692.9 65.1 690.5 61.0 687.6 57.3C682.8 51.2 678.3 44.7 673.6 38.3C670.9 34.6 667.9 31.0 665.4 27.0C664.1 24.9 662.0 23.4 660.6 21.4C659.4 19.5 659.0 17.2 658.6 14.9C658.5 14.1 657.6 13.5 657.6 12.7C657.7 11.5 658.9 10.6 659.8 9.8C661.1 8.3 662.4 6.6 664.1 5.7Z"/>
</svg>
